<?xml version="1.0" encoding="utf-8"?>
<svg version="1.1" xmlns="http://www.w3.org/2000/svg" xmlns:xlink="http://www.w3.org/1999/xlink" x="0px" y="0px" viewBox="0 0 1000 1000">

<g><g transform="translate(0.000000,511.000000) scale(0.100000,-0.100000)"><path d="M322.9,5001.9c-85.1-21.8-161.4-96-198.5-192c-41.5-113.4-30.5-200.7,37.1-298.9c85.1-120,133.1-126.5,798.4-126.5h606.5L2238.2,1734l674.1-2648.3l-133.1-589c-74.2-325-133.1-630.4-133.1-680.6c0-115.6,65.4-222.5,161.4-268.3c67.6-30.5,390.5-34.9,3398.8-34.9c3119.5,0,3326.8,2.2,3396.6,39.3c115.6,56.7,165.8,141.8,165.8,272.7c0,135.2-58.9,231.2-172.3,285.8c-67.6,32.7-357.8,34.9-3163.2,34.9c-1699.4,0-3089,6.6-3089,17.5c0,8.7,45.8,220.3,102.5,469l102.5,453.7l-82.9,338.1c-45.8,185.4-78.5,344.7-69.8,351.2c6.6,8.7,407.9,56.7,892.2,106.9C4770.9-65.7,6001.3,65.2,7020,174.3C8041,283.3,8900.5,381.5,8931,394.6c32.7,13.1,85.1,52.4,120,87.3c56.7,58.9,87.3,185.4,460.3,1867.4c270.5,1221.6,397,1828.1,388.3,1873.9c-37.1,202.9-285.8,314.1-462.5,205.1c-96-56.7-126.5-115.6-170.1-309.8l-37.1-170.2H5774.4H2321.1l-21.8,82.9c-10.9,43.6-63.3,237.8-113.4,429.8c-48,192-104.7,377.4-122.2,410.1c-17.4,34.9-69.8,80.7-122.2,104.7c-85.1,37.1-148.3,39.3-833.3,39.3C700.3,5012.8,346.9,5006.3,322.9,5001.9z M3658.3,3320c19.6-30.6,146.2-1051.5,135.3-1071.1c-6.6-8.7-181.1-24-388.3-32.7c-207.2-8.7-427.6-19.6-488.6-26.2l-113.4-13.1l-133.1,551.9c-74.2,305.4-133.1,567.2-133.1,582.5c0,19.6,126.5,26.2,554.1,26.2C3396.6,3337.4,3651.8,3328.7,3658.3,3320z M5482.1,2827v-510.5l-353.4-15.3c-196.3-8.7-434.1-17.4-530.1-19.6l-172.3-2.2l-61.1,469c-32.7,257.4-58.9,495.2-61.1,530.1v58.9h589h589V2827z M7233.8,3322.2c4.4-10.9-10.9-220.3-34.9-466.8l-43.6-449.4l-220.3-15.3c-122.2-6.5-355.6-19.6-519.2-26.2l-301-15.3v495.2v493h554.1C6974.2,3337.4,7229.4,3330.9,7233.8,3322.2z M9020.4,3326.5c10.9-13.1-144-811.5-161.4-829c-17.4-17.4-1040.6-63.3-1058-48c-15.3,17.5,54.5,839.9,72,870.4C7886.1,3339.6,9000.8,3344,9020.4,3326.5z M8732.5,1836.6c0-34.9-168-857.3-176.7-863.9c-15.3-10.9-898.8-100.4-909.7-91.6c-8.7,8.7,52.3,722.1,74.2,855.2l8.7,69.8l421,19.6c229.1,10.9,455.9,21.8,501.7,24C8695.4,1851.8,8732.5,1845.3,8732.5,1836.6z M7096.4,1755.8c0-50.2-91.6-938-96-944.6c-10.9-8.7-746.1-91.6-824.6-91.6h-61.1v501.7v501.7l104.7,2.2c56.7,2.2,216,10.9,353.4,19.6C6910.9,1764.6,7096.4,1768.9,7096.4,1755.8z M5482.1,1160.3V641.1l-407.9-43.6c-226.9-24-414.5-41.5-418.8-37.1c-24,17.4-144,1075.5-124.4,1077.7c78.5,10.9,558.5,34.9,739.5,37.1l211.6,4.4V1160.3z M3896.1,1533.3c41.5-285.8,130.9-1031.8,122.2-1040.6c-6.5-6.6-368.7-48-737.3-85.1c-50.2-4.4-54.5,13.1-189.8,571.5c-76.4,316.3-137.4,578.1-135.2,582.5c6.5,4.4,580.3,37.1,848.6,48C3880.9,1614.1,3885.2,1609.7,3896.1,1533.3z"/><path d="M4195-3082.7c-418.9-122.2-676.3-479.9-650.1-903.1c32.7-499.6,519.2-885.7,999.1-796.2c298.9,54.5,519.2,216,643.5,469c279.2,565-98.2,1217.2-722.1,1250C4360.8-3058.7,4253.9-3065.2,4195-3082.7z"/><path d="M7787.9-3078.3C7260-3202.6,6972-3796,7203.3-4289c163.6-346.9,558.4-560.6,918.4-493c351.2,65.4,586.8,266.1,698.1,595.5c91.6,266.2,24,608.6-154.9,813.7C8438-3115.4,8104.2-3004.1,7787.9-3078.3z"/></g></g>
</svg>